<svg xmlns="http://www.w3.org/2000/svg" viewBox="0 0 24 24" fill="none">
	<mask
		id="mask0_161_7365"
		style="mask-type:luminance"
		maskUnits="userSpaceOnUse"
		x="3"
		y="1"
		width="18"
		height="22"
	>
		<path d="M3 1H20.7794V22.3353H3V1Z" fill="white" />
	</mask>
	<g mask="url(#mask0_161_7365)">
		<path
			d="M14.1516 3.24638L12.4034 2.77795L10.9302 8.27606L9.60014 3.31233L7.85194 3.78076L9.28896 9.14369L5.70969 5.56443L4.42993 6.84419L8.35594 10.7702L3.46671 9.46017L2.99829 11.2083L8.34038 12.6397C8.27922 12.3759 8.24687 12.1011 8.24687 11.8187C8.24687 9.81953 9.86746 8.19894 11.8666 8.19894C13.8657 8.19894 15.4863 9.81953 15.4863 11.8187C15.4863 12.0993 15.4544 12.3724 15.394 12.6347L20.2489 13.9356L20.7173 12.1874L15.354 10.7503L20.2436 9.44012L19.7751 7.69196L14.412 9.12898L17.9913 5.54972L16.7115 4.26998L12.84 8.14156L14.1516 3.24638Z"
			fill="currentColor"
		/>
		<path
			d="M15.3888 12.655C15.2389 13.2887 14.9225 13.8579 14.4883 14.314L18.0056 17.8313L19.2853 16.5515L15.3888 12.655Z"
			fill="currentColor"
		/>
		<path
			d="M14.4529 14.3508C14.0135 14.7996 13.4582 15.1345 12.8354 15.3071L14.1153 20.0836L15.8635 19.6151L14.4529 14.3508Z"
			fill="currentColor"
		/>
		<path
			d="M12.7701 15.3246C12.4812 15.3989 12.1784 15.4384 11.8663 15.4384C11.5319 15.4384 11.2082 15.393 10.9008 15.3082L9.61981 20.089L11.368 20.5574L12.7701 15.3246Z"
			fill="currentColor"
		/>
		<path
			d="M10.839 15.2905C10.2258 15.1093 9.68038 14.7702 9.24994 14.3201L5.72406 17.8459L7.00382 19.1257L10.839 15.2905Z"
			fill="currentColor"
		/>
		<path
			d="M9.22084 14.2889C8.79778 13.836 8.48962 13.2743 8.34294 12.6505L3.47211 13.9556L3.94053 15.7038L9.22084 14.2889Z"
			fill="currentColor"
		/>
	</g>
<style>@media (prefers-color-scheme: light) { :root { filter: none; } }
</style></svg>